<?xml version="1.0" standalone="no"?>
<!DOCTYPE svg PUBLIC "-//W3C//DTD SVG 20010904//EN"
 "http://www.w3.org/TR/2001/REC-SVG-20010904/DTD/svg10.dtd">
<svg version="1.0" xmlns="http://www.w3.org/2000/svg"
 width="512.000000pt" height="512.000000pt" viewBox="0 0 512.000000 512.000000"
 preserveAspectRatio="xMidYMid meet">
<metadata>
Created by potrace 1.11, written by Peter Selinger 2001-2013
</metadata>
<g transform="translate(0.000000,512.000000) scale(0.100000,-0.100000)"
fill="#000000" stroke="none">
<path d="M1519 4811 c-23 -19 -24 -23 -27 -210 l-3 -191 29 -30 c35 -34 66
-33 97 3 l21 23 27 -27 c16 -16 35 -26 46 -24 30 6 61 28 67 49 4 11 6 100 6
198 0 173 -1 181 -23 204 -22 23 -63 31 -85 16 -5 -4 -18 -18 -27 -32 -13 -18
-17 -20 -17 -8 0 21 -37 48 -66 48 -12 0 -32 -9 -45 -19z"/>
<path d="M461 4375 c-35 -46 -21 -69 124 -212 74 -73 138 -133 143 -134 4 0
15 -2 25 -4 10 -2 30 7 45 20 l27 24 22 -21 c31 -29 81 -28 105 1 38 47 27 66
-120 213 -120 120 -142 138 -170 138 -19 0 -40 -8 -53 -21 l-21 -21 -22 21
c-31 30 -79 28 -105 -4z"/>
<path d="M2459 4277 c-162 -158 -175 -179 -138 -224 28 -33 59 -35 101 -8 21
14 38 21 38 15 0 -17 57 -40 79 -32 11 4 81 67 156 141 145 144 156 164 115
209 -26 27 -69 28 -102 2 -24 -19 -26 -19 -41 -2 -9 10 -31 19 -49 20 -30 2
-45 -10 -159 -121z"/>
<path d="M1567 4093 c-1 -1 -29 -3 -62 -4 -307 -13 -609 -247 -706 -546 -106
-328 6 -673 286 -883 71 -54 128 -83 228 -120 l29 -10 -49 -38 c-138 -110
-240 -278 -277 -458 -9 -43 -18 -79 -20 -82 -3 -2 -26 -6 -52 -9 -79 -8 -195
-41 -273 -78 -301 -143 -484 -434 -477 -760 3 -126 23 -217 72 -323 120 -263
371 -446 669 -488 91 -13 3392 -8 3465 5 333 60 585 283 680 601 30 100 38
277 17 376 -21 97 -61 195 -114 277 -46 73 -145 178 -203 217 -19 13 -37 27
-40 31 -9 12 -144 76 -205 97 -33 11 -81 23 -107 27 -53 8 -55 13 -37 79 19
68 20 79 23 171 11 393 -239 775 -614 936 -160 69 -268 86 -512 83 -174 -2
-182 -3 -300 -33 -274 -70 -532 -287 -653 -549 l-27 -59 -51 27 c-29 15 -65
31 -80 36 l-28 9 65 53 c136 109 245 280 282 442 37 160 16 362 -51 504 -120
253 -376 437 -642 462 -56 5 -233 11 -236 7z"/>
<path d="M35 3345 c-30 -29 -31 -61 -5 -95 l19 -25 270 0 c257 0 271 1 290 20
33 34 34 60 5 94 l-26 31 -264 0 -265 0 -24 -25z"/>
<path d="M2665 3345 c-40 -39 -28 -93 26 -113 13 -5 138 -9 276 -8 239 1 253
2 272 21 35 36 35 62 2 95 l-29 30 -262 0 -261 0 -24 -25z"/>
<path d="M584 2428 c-107 -106 -142 -148 -139 -163 2 -11 4 -23 4 -27 2 -16
46 -48 67 -48 12 0 33 9 47 21 l26 20 30 -22 c20 -15 37 -20 54 -15 14 3 87
66 161 140 115 113 136 139 136 164 0 21 -8 37 -26 51 -35 27 -65 27 -96 -2
l-25 -23 -21 23 c-42 47 -63 35 -218 -119z"/>
</g>
</svg>
